<?xml version="1.0" encoding="UTF-8"?>
<svg id="_圖層_2" data-name="圖層 2" xmlns="http://www.w3.org/2000/svg" viewBox="0 0 226.77 226.78">
  <defs>
    <style>
      .cls-1 {
        fill: #141314;
      }

      .cls-2 {
        fill: #fff;
      }
    </style>
  </defs>
  <g id="_圖層_1-2" data-name="圖層 1">
    <g>
      <g>
        <path class="cls-2" d="M113.39,3.23c60.84,0,110.15,49.32,110.15,110.16s-49.32,110.16-110.15,110.16"/>
        <path class="cls-1" d="M113.39,223.55c-60.84,0-110.15-49.32-110.15-110.16S52.55,3.23,113.39,3.23"/>
        <path class="cls-1" d="M113.39,226.78C50.87,226.78,0,175.91,0,113.39S50.87,0,113.39,0s113.38,50.87,113.38,113.39-50.86,113.39-113.38,113.39ZM113.39,6.48C54.43,6.48,6.48,54.44,6.48,113.39s47.96,106.91,106.91,106.91,106.91-47.96,106.91-106.91S172.34,6.48,113.39,6.48Z"/>
      </g>
      <g>
        <path class="cls-1" d="M113.39,103.99c5.19,0,9.4,4.21,9.4,9.4s-4.21,9.4-9.4,9.4"/>
        <path class="cls-2" d="M113.39,122.79c-5.19,0-9.4-4.21-9.4-9.4s4.21-9.4,9.4-9.4"/>
      </g>
      <rect class="cls-1" x="135.88" y="101.3" width="32.24" height="24.18"/>
      <rect class="cls-2" x="58.65" y="101.3" width="32.24" height="24.18"/>
    </g>
  </g>
</svg>